<?xml version="1.0" standalone="no"?>
<!DOCTYPE svg PUBLIC "-//W3C//DTD SVG 20010904//EN"
 "http://www.w3.org/TR/2001/REC-SVG-20010904/DTD/svg10.dtd">
<svg version="1.0" xmlns="http://www.w3.org/2000/svg"
 width="1080.000000pt" height="1080.000000pt" viewBox="0 0 1080.000000 1080.000000"
 preserveAspectRatio="xMidYMid meet">

<g transform="translate(0.000000,1080.000000) scale(0.100000,-0.100000)"
fill="#000000" stroke="none">
<path d="M0 5400 l0 -5400 5400 0 5400 0 0 5400 0 5400 -5400 0 -5400 0 0
-5400z m2402 2649 c126 -27 204 -84 463 -339 99 -97 376 -367 615 -600 1456
-1420 1449 -1413 1500 -1491 96 -149 93 -282 -11 -438 -37 -56 -272 -293 -769
-776 -113 -110 -295 -288 -405 -395 -110 -107 -285 -278 -390 -380 -104 -102
-298 -291 -430 -421 -378 -372 -443 -428 -529 -454 -61 -18 -96 -19 -162 -1
-171 45 -320 204 -339 361 -9 67 14 151 60 220 37 56 527 544 1150 1147 568
548 827 812 853 869 27 56 27 72 2 123 -21 45 -67 90 -945 946 -1116 1086
-1115 1085 -1135 1161 -25 94 33 235 144 345 75 75 113 99 186 120 58 16 78
16 142 3z m6094 -4558 c159 -8 197 -21 271 -93 78 -76 124 -224 103 -336 -23
-128 -88 -215 -195 -262 -106 -46 -86 -45 -1765 -45 -1472 0 -1589 1 -1641 17
-165 51 -250 190 -236 387 6 89 30 153 81 215 55 68 122 96 276 120 49 7 2967
5 3106 -3z"/>
</g>
</svg>
